<?xml version="1.0" encoding="utf-8"?>
<!-- Generator: Adobe Illustrator 26.2.1, SVG Export Plug-In . SVG Version: 6.00 Build 0)  -->
<svg version="1.1" id="Layer_1" xmlns="http://www.w3.org/2000/svg" xmlns:xlink="http://www.w3.org/1999/xlink" x="0px" y="0px"
	 viewBox="0 0 450.1 488.2" style="enable-background:new 0 0 450.1 488.2;" xml:space="preserve">
<style type="text/css">
	.st0{fill-rule:evenodd;clip-rule:evenodd;fill:#FC7853;}
	.st1{fill:#FFFFFF;}
</style>
<g transform="rotate(0 300.1302373991179 236.15409611715404)">
	<path id="Layer_x0020_1" class="st0" d="M203.4,254.3c20.7-0.3,35.9-5.5,45.5-15.5c-6.4-3.7-12.9-7.4-19.3-11.1l2.2,1.9
		c1.7,1.3,2.1,3.7,1.1,5.6l-6.8,11.8c-3.7,0.8-7.7,1.4-12,1.8l13-22.5l-6.7-3.8l-19,11l-19,11v21.9v21.9l19,11l19,11l19-11l19-11
		v-21.9v-2.9c-13.9,3.5-32.3,6.7-45.2,5.8l-8.3,14.4l-8.3-4.7l6.7-11.5l0.2,0.1l0,0l0,0l0,0h0.1l0,0l0,0l0,0l0,0l0,0l0,0l0,0l0,0
		l0,0l0,0l0,0l0,0l0,0l0,0l0,0l0,0l0,0l0,0l0,0l0,0l0,0l0,0l0,0l0,0l0,0l0,0l0,0l0,0l0,0l0,0l0,0l0,0l0,0l0,0l0,0l0,0l0,0l0,0l0,0
		l0,0l0,0l0,0l0,0l0,0l0,0l0,0l0,0l0,0l0,0l0,0l0,0l0,0l0,0l0,0l0,0l0,0l0,0l0,0l0,0l0,0l0,0l0,0l0,0l0,0l0,0l0,0l0,0l0,0l0,0l0,0
		l0,0l0,0l0,0l0,0l0,0l0,0l0,0l0,0l0,0l0,0h-0.1l0,0l0,0l0,0c-3.8-1.5-6.1-3.9-5.9-7.5C197.9,256.7,200.4,254.3,203.4,254.3
		L203.4,254.3z M173.6,217.6c-8.6,11.3-17.4,31.1-18.4,50l13.3,12.5l-13.4-7.7l-10.4-6l-28.2-16.2v-60V130l52-30l52-30l52,30l52,30
		v60v60l-26.2,15.1l-9.8,5.6l-13.4,7.7l13.1-12.4c-1.6-28-6.8-58.9-22.7-79L240,222.9l22.8-39.5l4.3-7.4l5.8-9.9l5.4,3.1l2.9-5.1
		c22.4,12.5,35.2,21.1,38.4,25.9c-4.7-12.6-15.7-24.5-32.8-35.6l2.8-5L272,139.3l-2.9,5c-3.2-1.6-6.5-3.2-10-4.8l-5.9,9.6l10.1,5.3
		l-2.7,4.6l4,2.3l-8.3,14.3c-4.9-5.1-10.3-9.6-16.1-13.2c-2.6,1.5-7.5,5.3-10.4,6.3c14.5-14.7,19-31.4,13-52
		c-17.1,3.2-30.3,16.9-33.1,34.1c-23.5-2.5-56.3,4.2-68.2,27.2c-1.2,2.1-1.6,4.5-1.2,7.2c1.8,11.2,35.1,30,48.4,33.6
		C184.5,219.7,177.7,218.9,173.6,217.6L173.6,217.6z M349.6,138.2c-1.1,13.2-2.8,10.3,9.2,16c-13.2-1.1-10.3-2.8-16,9.2
		c1.1-13.2,2.8-10.3-9.2-16C346.9,148.4,343.9,150.1,349.6,138.2L349.6,138.2z M309.7,89.9c8.6,10.1,5.3,9.2,17.8,4.8
		c-10.1,8.6-9.2,5.3-4.8,17.8c-8.6-10.1-5.3-9.2-17.8-4.8C315,99.1,314.1,102.4,309.7,89.9L309.7,89.9z M310.6,189.7
		c1.3,7.1,0,5.8,7.1,7.1c-7.1,1.3-5.8,0-7.1,7.1c-1.3-7.1,0-5.8-7.1-7.1C310.6,195.5,309.3,196.8,310.6,189.7z M306.7,138
		c1.7,8.9,0,7.3,9,9c-8.9,1.7-7.3,0-9,9c-1.7-8.9,0-7.3-9-9C306.7,145.3,305,146.9,306.7,138z M187.8,171c0-4.8,3.9-8.8,8.8-8.8
		c4.8,0,8.8,3.9,8.8,8.8c0,4.8-3.9,8.8-8.8,8.8C191.8,179.7,187.8,175.8,187.8,171z M211.3,269L211.3,269L211.3,269L211.3,269
		L211.3,269L211.3,269L211.3,269L211.3,269L211.3,269L211.3,269L211.3,269L211.3,269L211.3,269L211.3,269L211.3,269L211.3,269
		L211.3,269L211.3,269L211.3,269L211.3,269L211.3,269L211.3,269L211.3,269L211.3,269h-0.2l0,0l0,0l0,0l0,0l0,0H211l0,0
		c-0.4,0-0.6-0.1-1-0.1l0,0l0,0l0,0l0,0l0,0l0,0l0,0l0,0l0,0l0,0l0,0l0,0l0,0l0,0l0,0l0,0l0,0l0,0l0,0l0,0l0,0l0,0l0,0l0,0l0,0l0,0
		c0.3,0,0.6,0.1,1,0.1l0,0h0.1l0,0l0,0l0,0l0,0l0,0H211.3L211.3,269L211.3,269L211.3,269L211.3,269L211.3,269L211.3,269L211.3,269
		L211.3,269L211.3,269L211.3,269L211.3,269L211.3,269L211.3,269L211.3,269L211.3,269L211.3,269L211.3,269L211.3,269L211.3,269
		L211.3,269L211.3,269L211.3,269L211.3,269z M209.4,268.7L209.4,268.7L209.4,268.7L209.4,268.7L209.4,268.7L209.4,268.7L209.4,268.7
		L209.4,268.7L209.4,268.7L209.4,268.7L209.4,268.7L209.4,268.7L209.4,268.7L209.4,268.7L209.4,268.7L209.4,268.7L209.4,268.7
		L209.4,268.7L209.4,268.7L209.4,268.7L209.4,268.7L209.4,268.7L209.4,268.7L209.4,268.7L209.4,268.7L209.4,268.7h-0.2l0,0l0,0l0,0
		l-0.3-0.1l0,0l0,0l0,0h-0.1l0,0l0,0l0,0l0,0l0,0l0,0l0,0l0,0l0,0l0,0l0,0l0,0l0,0l0,0l0,0l0,0l0,0l0,0l0,0l0,0l0,0l0,0l0,0l0,0l0,0
		l0,0l0,0l0,0l0,0l0,0l0,0l0,0l0,0l0,0l0,0l0,0l0,0l0,0l0,0l0,0l0,0l0,0l0,0l0,0l0,0l0,0l0,0l0,0h0.1l0,0l0,0l0,0l0.3,0.1l0,0l0,0
		l0,0H209.4L209.4,268.7L209.4,268.7L209.4,268.7L209.4,268.7L209.4,268.7L209.4,268.7L209.4,268.7L209.4,268.7L209.4,268.7
		L209.4,268.7L209.4,268.7L209.4,268.7L209.4,268.7L209.4,268.7L209.4,268.7L209.4,268.7L209.4,268.7L209.4,268.7L209.4,268.7
		L209.4,268.7L209.4,268.7L209.4,268.7L209.4,268.7L209.4,268.7L209.4,268.7z M208.5,268.5L208.5,268.5L208.5,268.5L208.5,268.5
		L208.5,268.5L208.5,268.5L208.5,268.5L208.5,268.5L208.5,268.5L208.5,268.5L208.5,268.5L208.5,268.5L208.5,268.5L208.5,268.5
		L208.5,268.5L208.5,268.5L208.5,268.5L208.5,268.5L208.5,268.5L208.5,268.5L208.5,268.5L208.5,268.5L208.5,268.5L208.5,268.5
		L208.5,268.5L208.5,268.5L208.5,268.5L208.5,268.5L208.5,268.5L208.5,268.5L208.5,268.5L208.5,268.5L208.5,268.5L208.5,268.5
		L208.5,268.5L208.5,268.5L208.5,268.5L208.5,268.5L208.5,268.5L208.5,268.5L208.5,268.5L208.5,268.5L208.5,268.5L208.5,268.5
		L208.5,268.5L208.5,268.5L208.5,268.5L208.5,268.5L208.5,268.5L208.5,268.5L208.5,268.5L208.5,268.5L208.5,268.5L208.5,268.5
		L208.5,268.5L208.5,268.5L208.5,268.5L208.5,268.5L208.5,268.5L208.5,268.5L208.5,268.5L208.5,268.5L208.5,268.5L208.5,268.5
		L208.5,268.5L208.5,268.5L208.5,268.5L208.5,268.5L208.5,268.5L208.5,268.5L208.5,268.5L208.5,268.5L208.5,268.5L208.5,268.5
		L208.5,268.5L208.5,268.5L208.5,268.5L208.5,268.5L208.5,268.5L208.5,268.5L208.5,268.5L208.5,268.5L208.5,268.5L208.5,268.5
		L208.5,268.5L208.5,268.5L208.5,268.5L208.5,268.5L208.5,268.5L208.5,268.5L208.5,268.5L208.5,268.5L208.5,268.5L208.5,268.5
		L208.5,268.5L208.5,268.5L208.5,268.5L208.5,268.5L208.5,268.5L208.5,268.5L208.5,268.5L208.5,268.5L208.5,268.5L208.5,268.5
		L208.5,268.5L208.5,268.5L208.5,268.5L208.5,268.5L208.5,268.5L208.5,268.5L208.5,268.5L208.5,268.5L208.5,268.5L208.5,268.5
		L208.5,268.5L208.5,268.5L208.5,268.5L208.5,268.5L208.5,268.5L208.5,268.5L208.5,268.5L208.5,268.5L208.5,268.5L208.5,268.5
		L208.5,268.5L208.5,268.5L208.5,268.5L208.5,268.5L208.5,268.5L208.5,268.5L208.5,268.5L208.5,268.5L208.5,268.5L208.5,268.5
		L208.5,268.5L208.5,268.5L208.5,268.5L208.5,268.5L208.5,268.5L208.5,268.5L208.5,268.5L208.5,268.5L208.5,268.5L208.5,268.5
		L208.5,268.5L208.5,268.5L208.5,268.5L208.5,268.5L208.5,268.5L208.5,268.5L208.5,268.5L208.5,268.5L208.5,268.5L208.5,268.5
		L208.5,268.5L208.5,268.5L208.5,268.5L208.5,268.5L208.5,268.5L208.5,268.5L208.5,268.5L208.5,268.5L208.5,268.5L208.5,268.5
		L208.5,268.5L208.5,268.5L208.5,268.5L208.5,268.5L208.5,268.5L208.5,268.5L208.5,268.5L208.5,268.5L208.5,268.5L208.5,268.5
		L208.5,268.5L208.5,268.5L208.5,268.5L208.5,268.5L208.5,268.5L208.5,268.5L208.5,268.5L208.5,268.5L208.5,268.5L208.5,268.5
		L208.5,268.5L208.5,268.5L208.5,268.5L208.5,268.5L208.5,268.5z M206.6,268.2L206.6,268.2L206.6,268.2L206.6,268.2L206.6,268.2
		L206.6,268.2L206.6,268.2L206.6,268.2L206.6,268.2L206.6,268.2L206.6,268.2L206.6,268.2L206.6,268.2L206.6,268.2L206.6,268.2
		L206.6,268.2L206.6,268.2L206.6,268.2L206.6,268.2L206.6,268.2L206.6,268.2L206.6,268.2L206.6,268.2h-0.2l0,0l0,0l0,0h-0.1l0,0
		l-0.2-0.1l0,0l0,0l0,0l0,0l0,0l0,0l0,0l0,0l0,0l0,0l0,0l0,0l0,0l0,0l0,0l0,0l0,0l0,0l0,0l0,0l0,0l0,0l0,0l0,0l0,0l0,0l0,0l0,0l0,0
		l0,0l0,0l0,0l0,0l0,0l0,0l0,0l0,0l0,0l0,0l0,0l0,0l0,0l0,0l0,0l0,0l0,0l0,0l0,0l0,0l0,0l0,0l0,0l0,0l0,0l0,0l0,0l0,0l0,0l0,0l0,0
		l0,0l0,0l0.2,0.1l0,0h0.1l0,0l0,0l0,0H206.6L206.6,268.2L206.6,268.2L206.6,268.2L206.6,268.2L206.6,268.2L206.6,268.2L206.6,268.2
		L206.6,268.2L206.6,268.2L206.6,268.2L206.6,268.2L206.6,268.2L206.6,268.2L206.6,268.2L206.6,268.2L206.6,268.2L206.6,268.2
		L206.6,268.2L206.6,268.2L206.6,268.2L206.6,268.2L206.6,268.2z M205.8,268L205.8,268L205.8,268L205.8,268L205.8,268L205.8,268
		L205.8,268L205.8,268L205.8,268L205.8,268L205.8,268L205.8,268L205.8,268L205.8,268L205.8,268L205.8,268L205.8,268L205.8,268
		L205.8,268L205.8,268L205.8,268L205.8,268L205.8,268L205.8,268L205.8,268h-0.2l0,0l0,0l0,0l0,0l0,0l0,0l0,0l0,0l0,0h-0.1l0,0l0,0
		l0,0h-0.1l0,0h-0.1l0,0l0,0l0,0l0,0l0,0h-0.1l0,0l0,0l0,0l0,0l0,0l0,0l0,0l0,0l0,0l0,0l0,0l0,0l0,0l0,0l0,0l0,0l0,0l0,0l0,0l0,0
		l0,0l0,0l0,0l0,0l0,0l0,0l0,0l0,0l0,0l0,0l0,0l0,0l0,0l0,0l0,0l0,0l0,0l0,0l0,0l0,0l0,0l0,0l0,0l0,0l0,0l0,0l0,0l0,0l0,0l0,0l0,0
		l0,0l0,0l0,0l0,0l0,0l0,0l0,0l0,0l0,0l0,0l0,0l0,0l0,0l0,0l0,0l0,0l0,0l0,0l0,0l0,0l0,0l0,0l0,0l0,0l0,0l0,0l0,0l0,0l0,0l0,0l0,0
		l0,0l0,0l0,0l0,0l0,0l0,0l0,0l0,0l0,0l0,0l0,0l0,0l0,0l0,0l0,0l0,0l0,0l0,0h0.1l0,0l0,0l0,0l0,0l0,0h0.1l0,0h0.1l0,0l0,0l0,0h0.1
		l0,0l0,0l0,0l0,0l0,0l0,0l0,0l0,0l0,0H205.8L205.8,268L205.8,268L205.8,268L205.8,268L205.8,268L205.8,268L205.8,268L205.8,268
		L205.8,268L205.8,268L205.8,268L205.8,268L205.8,268L205.8,268L205.8,268L205.8,268L205.8,268L205.8,268L205.8,268L205.8,268
		L205.8,268L205.8,268L205.8,268L205.8,268z"/>
</g>
<g transform="rotate(0 287.50000732421876 423.11999893188477)">
	<g>
		<path class="st1" d="M74.6,400.7l-4.6-3.4v-5.5h20.2c2.7,0,4-1.4,4-4.3l0,0c0-3-1.1-4.7-3.3-5.1l0,0l-9.8-1.6
			c-7.4-1.3-11.1-5.5-11.1-12.6l0,0c0-9,4.6-13.5,13.8-13.5l0,0h13.9l4.6,3.4v5.5h-18c-2.7,0-4.1,1.4-4.1,4.3l0,0
			c0,2.9,1.2,4.5,3.5,4.9l0,0l9.8,1.6c7.3,1.2,11,5.5,11,12.7l0,0c0,9-4.6,13.6-13.9,13.6l0,0H74.6z M126.1,418.2h-10.2v-63.4H141
			c9.2,0,13.7,4.6,13.7,13.8l0,0v18.3c0,9.2-4.6,13.8-13.7,13.8l0,0h-15L126.1,418.2L126.1,418.2z M126.1,363.7v28.1h14.4
			c2.7,0,4-1.3,4-4l0,0v-20c0-2.7-1.3-4-4-4l0,0h-14.4V363.7z M166.8,385.5L166.8,385.5V336H177v50.6c0,3.8,1.9,5.8,5.8,6.1l0,0v8.8
			C172.2,401.5,166.8,396.2,166.8,385.5z M203.2,346.9h-10.8v-10.4h10.8V346.9z M203,400.7h-10.2v-45.9H203V400.7z M226.3,400.7
			h-10.2v-45.9h25.2c9.2,0,13.7,4.6,13.7,13.8l0,0v32.1h-10.2v-33c0-2.7-1.3-4-4-4l0,0h-14.4v37H226.3z M267.5,386.9L267.5,386.9
			v-46.5h10.2v14.4h15.7v8.9h-15.7v24.1c0,2.7,1.3,4,4,4l0,0h12.5v5.5l-4.6,3.4h-8.3C272.1,400.7,267.5,396.1,267.5,386.9z
			 M303.2,386.9L303.2,386.9v-18.3c0-9.2,4.6-13.8,13.8-13.8l0,0h11.4c9.2,0,13.7,4.6,13.7,13.8l0,0v12.9h-28.7v6.2c0,2.7,1.3,4,4,4
			l0,0h22.9v5.5l-4.6,3.4H317C307.8,400.7,303.2,396.1,303.2,386.9z M313.5,367.8v5.9H332v-5.9c0-2.7-1.3-4-4-4l0,0h-10.4
			C314.8,363.7,313.5,365.1,313.5,367.8L313.5,367.8z M364.5,400.7h-10.2v-40.2c2.1-3.8,6.1-5.7,12.1-5.7l0,0h9.2l4.6,3.4v5.5h-11.5
			c-2,0-3.4,0.5-4.2,1.5l0,0V400.7z"/>
	</g>
</g>
</svg>
